<svg id="logo-0003-qnap_R" data-name="logo-0003-qnap +R" xmlns="http://www.w3.org/2000/svg" width="165" height="28.144" viewBox="0 0 165 28.144">
  <g id="Group_20" data-name="Group 20" transform="translate(0 0)">
    <g id="Group_18" data-name="Group 18" transform="translate(158.539 0.881)">
      <path fill="#fff" id="Path_34" data-name="Path 34" d="M327.5,8.371V4.7h1.615l.734.1a.832.832,0,0,1,.392.343,1.027,1.027,0,0,1,.147.538.93.93,0,0,1-.245.636,1.273,1.273,0,0,1-.783.343l.294.2.392.489.636.979h-.587l-.489-.783-.343-.489-.245-.245-.245-.1h-.832V8.322Zm.489-2.056h1.566a.538.538,0,0,0,.294-.245.587.587,0,0,0,.1-.343.538.538,0,0,0-.2-.441.881.881,0,0,0-.587-.147h-1.175Z" transform="translate(-325.738 -3.281)"/>
      <path fill="#fff" id="Path_35" data-name="Path 35" d="M323.9,5.03a3.231,3.231,0,0,1,3.23-3.23h0a3.23,3.23,0,0,1,3.23,3.23h0a3.23,3.23,0,0,1-3.23,3.23h0A3.23,3.23,0,0,1,323.9,5.03Zm.489,0a2.741,2.741,0,0,0,2.741,2.741h0a2.741,2.741,0,0,0,2.741-2.741h0a2.741,2.741,0,0,0-2.741-2.741h0a2.741,2.741,0,0,0-2.741,2.741Z" transform="translate(-323.9 -1.8)"/>
    </g>
    <g id="Group_19" data-name="Group 19" transform="translate(39.841 0.385)">
      <path fill="#fff" id="Path_36" data-name="Path 36" d="M200.327,28.307H189.8V20.965H175.07v7.342H164.6V6.77a5.286,5.286,0,0,1,2.056-4.405A9.035,9.035,0,0,1,172.476.8h19.97a9.443,9.443,0,0,1,5.825,1.566,5.237,5.237,0,0,1,2.056,4.405ZM189.8,15.874V7.945H175.07v7.929Z" transform="translate(-123.87 -0.792)"/>
      <path fill="#fff" id="Path_37" data-name="Path 37" d="M280.4,2.171A8.572,8.572,0,0,0,275.5.8H255.579a9.443,9.443,0,0,0-5.825,1.566A5.237,5.237,0,0,0,247.7,6.625h0V28.308h10.524v-7.2h16.985q6.9,0,6.9-5.58V6.723A5.592,5.592,0,0,0,280.4,2.171Zm-8.957,12.873H258.027v-7.1h13.363Z" transform="translate(-166.299 -0.794)"/>
      <path fill="#fff" id="Path_38" data-name="Path 38" d="M108.907.793H107.34V16.8c-.049.147-.2.294-.538.245a.734.734,0,0,1-.343-.2C104.7,14.058,97.845,4.709,95.642,1.674h0l-.1-.1H95.5A3.182,3.182,0,0,0,93.244.793H84.727a3.279,3.279,0,0,0-2.447.881,3.426,3.426,0,0,0-.881,2.4h0V28.3h9.936s-.049-12.775-.1-16.544c.049-.245.245-.587.979-.538a.538.538,0,0,1,.392.245h0C94.516,14.5,107.1,28.3,107.1,28.3h10.328V.793Z" transform="translate(-81.397 -0.787)"/>
    </g>
    <path fill="#fff" id="Path_39" data-name="Path 39" d="M22.565,21.488l-.489-.343H11.111V6.657H25.746V18.991a28.258,28.258,0,0,1,9.5,4.8,8.272,8.272,0,0,0,.489-3.084V7.293q0-6.9-8.076-7.293H9.055Q0,0,0,7.293V20.7Q0,28,9.055,28h17.67a17.523,17.523,0,0,0,2.594-.2A30.112,30.112,0,0,0,22.565,21.488Z" transform="translate(0)"/>
    <path fill="#fff" id="Path_40" data-name="Path 40" d="M39.1,37c3.279,2.1,9.3,6.265,11.258,10.034h7.489C56.574,44.734,52.267,39.252,39.1,37Z" transform="translate(-19.962 -18.89)"/>
  </g>
</svg>
